<?xml version="1.0" encoding="UTF-8"?>
<svg xmlns="http://www.w3.org/2000/svg" x="0px" y="0px"
width="100" height="100"
viewBox="0,0,256,256"
style="fill:#000000;">
<g transform=""><g fill="none" fill-rule="nonzero" stroke="none" stroke-width="none" stroke-linecap="none" stroke-linejoin="none" stroke-miterlimit="10" stroke-dasharray="" stroke-dashoffset="0" font-family="none" font-weight="none" font-size="none" text-anchor="none" style="mix-blend-mode: normal"><g transform="scale(2.56,2.56)"><path d="M89.16,70.46c-0.818,4.34 -4.294,7.647 -8.589,8.267c-6.748,1.033 -17.995,2.273 -30.673,2.273c-12.474,0 -23.721,-1.24 -30.673,-2.273c-4.294,-0.62 -7.771,-3.927 -8.589,-8.267c-0.818,-4.753 -1.636,-11.78 -1.636,-20.46c0,-8.68 0.818,-15.707 1.636,-20.46c0.818,-4.34 4.294,-7.647 8.589,-8.267c6.748,-1.033 17.994,-2.273 30.673,-2.273c12.679,0 23.721,1.24 30.673,2.273c4.294,0.62 7.771,3.927 8.589,8.267c0.818,4.753 1.84,11.78 1.84,20.46c-0.204,8.68 -1.022,15.707 -1.84,20.46z" fill="#ee4267" stroke="#000000" stroke-width="2" stroke-linecap="round" stroke-linejoin="miter"></path><path d="M71,44.444c-0.693,0.359 -1.407,0.697 -2.1,1.056c-2.793,1.414 -5.607,2.808 -8.4,4.222c-3.507,1.752 -7.014,3.505 -10.5,5.278c-3.486,-1.773 -6.993,-3.526 -10.5,-5.278c-3.507,-1.752 -7.014,-3.505 -10.5,-5.278c6.993,-2.808 14.007,-5.637 21,-8.444c6.993,2.808 14.007,5.637 21,8.444z" fill="#ffffff" stroke="none" stroke-width="1" stroke-linecap="butt" stroke-linejoin="miter"></path><path d="M61,50c0,4.667 0,9.333 0,14c-7.333,0 -14.667,0 -22,0c0,-4.667 0,-9.333 0,-14" fill="#ffffff" stroke="none" stroke-width="1" stroke-linecap="butt" stroke-linejoin="miter"></path><path d="M89.16,70.46c-0.818,4.34 -4.294,7.647 -8.589,8.267c-6.748,1.033 -17.995,2.273 -30.673,2.273c-12.474,0 -23.721,-1.24 -30.673,-2.273c-4.294,-0.62 -7.771,-3.927 -8.589,-8.267c-0.818,-4.753 -1.636,-11.78 -1.636,-20.46c0,-8.68 0.818,-15.707 1.636,-20.46c0.818,-4.34 4.294,-7.647 8.589,-8.267c6.748,-1.033 17.994,-2.273 30.673,-2.273c12.679,0 23.721,1.24 30.673,2.273c4.294,0.62 7.771,3.927 8.589,8.267c0.818,4.753 1.84,11.78 1.84,20.46c-0.204,8.68 -1.022,15.707 -1.84,20.46z" fill="none" stroke="#25262f" stroke-width="2" stroke-linecap="round" stroke-linejoin="round"></path><path d="M71,44.444c-0.693,0.359 -1.407,0.697 -2.1,1.056c-2.793,1.414 -5.607,2.808 -8.4,4.222c-3.507,1.752 -7.014,3.505 -10.5,5.278c-3.486,-1.773 -6.993,-3.526 -10.5,-5.278c-3.507,-1.752 -7.014,-3.505 -10.5,-5.278c6.993,-2.808 14.007,-5.637 21,-8.444c6.993,2.808 14.007,5.637 21,8.444z" fill="none" stroke="#25262f" stroke-width="2" stroke-linecap="round" stroke-linejoin="round"></path><path d="M61,50c0,4.667 0,9.333 0,14c-7.333,0 -14.667,0 -22,0c0,-4.667 0,-9.333 0,-14" fill="none" stroke="#25262f" stroke-width="2" stroke-linecap="round" stroke-linejoin="round"></path><path d="M69,46c0,0.333 0,0.667 0,1c0,1.333 0,2.667 0,4c0,2.333 0,4.667 0,7" fill="none" stroke="#25262f" stroke-width="2" stroke-linecap="round" stroke-linejoin="round"></path><path d="M47,74.975c-9.473,-0.158 -17.883,-1.052 -23.272,-1.809c-3.666,-0.5 -6.633,-3.167 -7.332,-6.667c-0.698,-3.832 -1.396,-9.499 -1.396,-16.499c0,-7 0.698,-12.667 1.397,-16.5c0.698,-3.5 3.666,-6.167 7.332,-6.667c1.252,-0.181 2.684,-0.37 4.272,-0.555" fill="none" stroke="#000000" stroke-width="1" stroke-linecap="round" stroke-linejoin="miter"></path><path d="M56,74.897c-1.944,0.065 -3.95,0.102 -6,0.103" fill="none" stroke="#000000" stroke-width="1" stroke-linecap="round" stroke-linejoin="miter"></path><path d="M66,74.306c-1.886,0.16 -3.894,0.303 -6,0.417" fill="none" stroke="#000000" stroke-width="1" stroke-linecap="round" stroke-linejoin="miter"></path><path d="M55,25.072c8.667,0.244 16.113,1.061 21.097,1.761c3.666,0.5 6.633,3.167 7.332,6.667c0.698,3.833 1.571,9.5 1.571,16.5c-0.175,7 -0.873,12.667 -1.571,16.5c-0.698,3.5 -3.666,6.167 -7.332,6.667c-0.935,0.135 -1.971,0.275 -3.097,0.414" fill="none" stroke="#000000" stroke-width="1" stroke-linecap="round" stroke-linejoin="miter"></path><path d="M47,25.024c0.96,-0.016 1.931,-0.024 2.913,-0.024c0.364,0 0.726,0.001 1.087,0.003" fill="none" stroke="#000000" stroke-width="1" stroke-linecap="round" stroke-linejoin="miter"></path><path d="M35,25.598c2.49,-0.196 5.176,-0.36 8,-0.466" fill="none" stroke="#000000" stroke-width="1" stroke-linecap="round" stroke-linejoin="miter"></path></g></g><g fill="#000000" fill-rule="nonzero" stroke="none" stroke-width="1" stroke-linecap="butt" stroke-linejoin="miter" stroke-miterlimit="10" stroke-dasharray="" stroke-dashoffset="0" font-family="none" font-weight="none" font-size="none" text-anchor="none" style="mix-blend-mode: normal"><g id="text"><path d="M80.88,170.9v6.47h-4.87l-0.67,-4.36c-0.64667,-0.64667 -1.46,-1.15667 -2.44,-1.53c-0.98,-0.37333 -2.13667,-0.56 -3.47,-0.56v0c-2.84667,0 -5.03667,1.03333 -6.57,3.1c-1.53333,2.06667 -2.3,4.76 -2.3,8.08v0v1.15c0,3.32667 0.76333,6.03 2.29,8.11c1.52667,2.08 3.68333,3.12 6.47,3.12v0c1.28667,0 2.46333,-0.18667 3.53,-0.56c1.07333,-0.37333 1.90333,-0.88333 2.49,-1.53v0l0.67,-4.36h4.87v6.47c-1.31333,1.52667 -2.99333,2.74333 -5.04,3.65c-2.04,0.90667 -4.32667,1.36 -6.86,1.36v0c-4.38667,0 -7.98,-1.52 -10.78,-4.56c-2.8,-3.04 -4.2,-6.94 -4.2,-11.7v0v-1.1c0,-4.74667 1.39333,-8.64667 4.18,-11.7c2.78,-3.05333 6.38,-4.58 10.8,-4.58v0c2.53333,0 4.81667,0.46 6.85,1.38c2.03333,0.92 3.71667,2.13667 5.05,3.65zM108.74,170.09v6.69h-4.92l-0.86,-4.49c-0.56667,-0.36 -1.39667,-0.67333 -2.49,-0.94c-1.09333,-0.27333 -2.25333,-0.41 -3.48,-0.41v0c-1.8,0 -3.19,0.38 -4.17,1.14c-0.98,0.75333 -1.47,1.73 -1.47,2.93v0c0,1.10667 0.51333,2.01667 1.54,2.73c1.02667,0.70667 2.79667,1.45667 5.31,2.25v0c3.60667,1.00667 6.34333,2.33333 8.21,3.98c1.86667,1.64667 2.8,3.81 2.8,6.49v0c0,2.8 -1.11,5.01 -3.33,6.63c-2.21333,1.61333 -5.13333,2.42 -8.76,2.42v0c-2.58667,0 -4.92667,-0.41 -7.02,-1.23c-2.08667,-0.82667 -3.82667,-1.96667 -5.22,-3.42v0v-6.83h5.08l0.69,4.65c0.66,0.54 1.55667,0.98667 2.69,1.34c1.12667,0.35333 2.38667,0.53 3.78,0.53v0c1.8,0 3.16667,-0.36667 4.1,-1.1c0.94,-0.73333 1.41,-1.71667 1.41,-2.95v0c0,-1.25333 -0.44667,-2.26333 -1.34,-3.03c-0.89333,-0.76 -2.45333,-1.47667 -4.68,-2.15v0c-3.88,-1.12667 -6.81667,-2.46 -8.81,-4c-1.99333,-1.54667 -2.99,-3.66 -2.99,-6.34v0c0,-2.64667 1.12333,-4.81333 3.37,-6.5c2.24667,-1.68 5.07,-2.54333 8.47,-2.59v0c2.51333,0 4.80333,0.38 6.87,1.14c2.06667,0.76667 3.80667,1.78667 5.22,3.06zM115.09,168.79h6.54v5.95h4.27v4.6h-4.27v12.38c0,0.94 0.19333,1.61333 0.58,2.02c0.39333,0.40667 0.91667,0.61 1.57,0.61v0c0.45333,0 0.84667,-0.02 1.18,-0.06c0.34,-0.04 0.72,-0.10333 1.14,-0.19v0l0.56,4.74c-0.73333,0.22 -1.46,0.38667 -2.18,0.5c-0.72,0.11333 -1.5,0.17 -2.34,0.17v0c-2.26,0 -4,-0.62 -5.22,-1.86c-1.22,-1.24667 -1.83,-3.21667 -1.83,-5.91v0v-12.4h-3.57v-4.6h3.57zM146.54,199.04l-0.43,-3.08c-0.78,1.14 -1.74333,2.01667 -2.89,2.63c-1.14,0.61333 -2.44667,0.92 -3.92,0.92v0c-2.56,0 -4.56333,-0.82 -6.01,-2.46c-1.45333,-1.64 -2.18,-4.19 -2.18,-7.65v0v-10.04l-2.68,-0.67v-3.95h2.68h6.55v14.71c0,1.76667 0.29667,3.03667 0.89,3.81c0.59333,0.76667 1.47333,1.15 2.64,1.15v0c1.03333,0 1.93,-0.16667 2.69,-0.5c0.75333,-0.34 1.37,-0.82333 1.85,-1.45v0v-13.1l-2.88,-0.67v-3.95h2.88h6.56v19.7l2.94,0.67v3.93zM181.31,187.09v0.47c0,3.62667 -0.81,6.52333 -2.43,8.69c-1.61333,2.17333 -3.95,3.26 -7.01,3.26v0c-1.42,0 -2.65333,-0.29667 -3.7,-0.89c-1.05333,-0.58667 -1.93667,-1.44333 -2.65,-2.57v0l-0.48,2.99h-5.66v-30.41l-3.48,-0.68v-3.95h10.02v13.32c0.70667,-0.97333 1.55,-1.72333 2.53,-2.25c0.98,-0.52 2.10667,-0.78 3.38,-0.78v0c3.08667,0 5.43667,1.16333 7.05,3.49c1.62,2.32667 2.43,5.43 2.43,9.31zM174.77,187.56v-0.47c0,-2.36667 -0.34667,-4.24333 -1.04,-5.63c-0.7,-1.38 -1.88667,-2.07 -3.56,-2.07v0c-1.02,0 -1.88333,0.21333 -2.59,0.64c-0.7,0.42667 -1.25333,1.03667 -1.66,1.83v0v10.26c0.40667,0.75333 0.96333,1.32333 1.67,1.71c0.71333,0.38667 1.58667,0.58 2.62,0.58v0c1.69333,0 2.87667,-0.59333 3.55,-1.78c0.67333,-1.19333 1.01,-2.88333 1.01,-5.07zM195.97,199.51v0c-3.5,0 -6.3,-1.12333 -8.4,-3.37c-2.09333,-2.24667 -3.14,-5.1 -3.14,-8.56v0v-0.89c0,-3.61333 0.99,-6.58667 2.97,-8.92c1.98667,-2.33333 4.65,-3.49333 7.99,-3.48v0c3.28,0 5.82667,0.98667 7.64,2.96c1.80667,1.98 2.71,4.65333 2.71,8.02v0v3.57h-14.51l-0.04,0.14c0.12,1.6 0.65667,2.91667 1.61,3.95c0.94667,1.03333 2.23667,1.55 3.87,1.55v0c1.45333,0 2.66,-0.14667 3.62,-0.44c0.95333,-0.29333 2,-0.75333 3.14,-1.38v0l1.78,4.04c-1.00667,0.79333 -2.30667,1.46 -3.9,2c-1.59333,0.54 -3.37333,0.81 -5.34,0.81zM195.39,179.34v0c-1.21333,0 -2.17333,0.46333 -2.88,1.39c-0.7,0.93333 -1.13333,2.15667 -1.3,3.67v0l0.07,0.11h8.04v-0.59c0,-1.39333 -0.32667,-2.50333 -0.98,-3.33c-0.64667,-0.83333 -1.63,-1.25 -2.95,-1.25z"></path></g></g></g>
</svg>